<svg width="42" height="43" viewBox="0 0 42 43" fill="none" xmlns="http://www.w3.org/2000/svg">
<path d="M9.75625 4.12945C9.97905 4.23658 10.1671 4.40445 10.2986 4.61375C10.4302 4.82304 10.5 5.06524 10.5 5.31245C10.5 6.76495 11.046 7.60145 11.7303 8.61995L11.781 8.69345C12.362 9.55795 13.125 10.6902 13.125 12.3125C13.125 13.968 12.2903 15.4275 11.018 16.2937C11.3523 16.5737 11.648 16.9185 11.9035 17.3315C12.7365 18.679 13.125 20.7387 13.125 23.6962C13.125 26.6922 12.7225 30.2902 12.0663 33.1637C11.7408 34.5917 11.3365 35.9095 10.8553 36.8982C10.628 37.3902 10.3271 37.8446 9.96275 38.2457C9.60225 38.615 9.0475 39.0087 8.3125 39.0087C7.5775 39.0087 7.02275 38.615 6.664 38.2457C6.29862 37.8454 5.99754 37.3908 5.7715 36.8982C5.2885 35.9077 4.88425 34.5917 4.55875 33.162C3.87616 30.0518 3.5213 26.8786 3.5 23.6945C3.5 20.737 3.8885 18.679 4.7215 17.3315C4.95915 16.9403 5.25813 16.5899 5.607 16.2937C4.95736 15.8526 4.42564 15.2592 4.05834 14.5651C3.69104 13.8711 3.49934 13.0977 3.5 12.3125C3.5 11.6685 3.5 10.5607 4.17025 9.13095C4.8265 7.73095 6.07425 6.1227 8.36675 4.28695C8.55997 4.1324 8.79293 4.03561 9.03878 4.00774C9.28463 3.97987 9.53335 4.02207 9.75625 4.12945ZM17.5 26.6047C16.5729 26.4492 15.671 26.169 14.819 25.7717C14.8558 25.0612 14.875 24.3647 14.875 23.6962C14.875 22.9857 14.854 22.3067 14.8085 21.6592C15.5838 22.298 16.499 22.7722 17.5 23.0295V18.875C17.5 18.1788 17.7766 17.5111 18.2688 17.0188C18.7611 16.5265 19.4288 16.25 20.125 16.25H26.25C26.2502 14.9147 25.8684 13.6073 25.1498 12.4819C24.4312 11.3565 23.4057 10.4601 22.1944 9.89843C20.983 9.33679 19.6362 9.13334 18.313 9.31208C16.9897 9.49082 15.7452 10.0443 14.7263 10.9072C14.4235 9.4827 13.72 8.4397 13.2703 7.77295L13.2003 7.66795C14.7726 6.55958 16.6191 5.90445 18.5384 5.77408C20.4577 5.64371 22.3759 6.0431 24.0836 6.92867C25.7914 7.81423 27.223 9.15193 28.2223 10.7957C29.2215 12.4395 29.75 14.3263 29.75 16.25H35.875C36.5712 16.25 37.2389 16.5265 37.7312 17.0188C38.2234 17.5111 38.5 18.1788 38.5 18.875V34.625C38.5 35.3211 38.2234 35.9888 37.7312 36.4811C37.2389 36.9734 36.5712 37.25 35.875 37.25H20.125C19.4288 37.25 18.7611 36.9734 18.2688 36.4811C17.7766 35.9888 17.5 35.3211 17.5 34.625V26.6047ZM21 26.6047V33.75H35V19.75H29.1533C28.5277 21.5153 27.4419 23.0815 26.0082 24.2867C24.5745 25.4918 22.8449 26.292 20.9983 26.6047H21ZM25.3138 19.75H21V23.0295C21.9006 22.7962 22.7458 22.3861 23.4864 21.8231C24.227 21.2601 24.8481 20.5554 25.3138 19.75Z" fill="#17F8C2"/>
</svg>
