<svg width="107" height="73" viewBox="0 0 107 73" fill="none" xmlns="http://www.w3.org/2000/svg">
<path fill-rule="evenodd" clip-rule="evenodd" d="M106.542 34.9404L106.486 34.3606L106.425 33.7827L106.359 33.2067L106.288 32.6325L106.211 32.0602L106.13 31.4897L106.043 30.9209L105.951 30.3539L105.854 29.7886L105.752 29.2251L105.644 28.6632L105.531 28.1031L105.412 27.5446L105.287 26.9879L105.156 26.4329L105.02 25.8797L104.876 25.3283L104.727 24.7787L104.57 24.2311L104.407 23.6855L104.236 23.142L104.058 22.6007L103.872 22.0616L103.678 21.525L103.476 20.9909L103.266 20.4596L103.048 19.931L102.82 19.4054L102.584 18.883L102.339 18.3639L102.084 17.8484L101.821 17.3366L101.547 16.8287L101.264 16.3249L100.971 15.8255L100.668 15.3306L100.356 14.8404L100.033 14.3553L99.7002 13.8753L99.3575 13.4008L99.0046 12.9319L98.6417 12.469L98.2687 12.0121L97.8858 11.5615L97.4929 11.1174L97.0901 10.6802L96.6774 10.2499L96.255 9.8269L95.823 9.41134L95.3813 9.00347L94.9301 8.60353L94.4695 8.21173L93.9997 7.82832L93.5208 7.45351L93.033 7.08751L92.5363 6.73055L92.031 6.38283L91.5173 6.04456L90.9955 5.71594L90.4656 5.39715L89.9279 5.0884L89.3827 4.78984L88.8303 4.50166L88.2708 4.22401L87.7046 3.95704L87.132 3.70091L86.5532 3.45574L85.9686 3.22165L85.3784 2.99876L84.783 2.78717L84.1828 2.58697L83.578 2.39823L82.969 2.22101L82.3563 2.05538L81.74 1.90135L81.1206 1.75897L80.4986 1.62822L79.8741 1.5091L79.2477 1.40158L78.6198 1.30563L77.9906 1.22116L77.3607 1.14811L76.7304 1.08637L76.1001 1.03582L75.4702 0.996319L74.8411 0.967727L74.2132 0.949885L73.5868 0.942627L72.9623 0.945775L72.3401 0.959141L71.7205 0.982529L71.1039 1.01573L70.4905 1.05854L69.8807 1.11071L69.2747 1.17204L68.673 1.24226L68.0757 1.32114L67.4831 1.40842L66.8955 1.50383L66.3132 1.6071L65.7362 1.71796L65.165 1.83612L64.5996 1.96129L64.0403 2.09317L63.4873 2.23147L62.9406 2.37587L62.4006 2.52606L61.8672 2.68173L61.3406 2.84255L60.821 3.00819L60.3084 3.17834L59.8028 3.35266L59.3045 3.53081L58.8133 3.71246L58.3294 3.89727L57.8527 4.0849L57.3832 4.27502L56.921 4.46728L56.466 4.66135L56.0181 4.85689L55.5772 5.05356L55.1434 5.25105L54.7165 5.44902L54.2963 5.64715L53.8829 5.8451L53.4759 6.04253L53.0753 6.23909L52.6809 6.43438L52.2924 6.62805L51.9097 6.81969L51.5326 7.00893L51.1607 7.19537L50.7938 7.37862L50.4316 7.55832L50.0738 7.73408L49.72 7.90554L49.3699 8.07235L49.0231 8.23417L48.6792 8.3907L48.3377 8.54163L47.9984 8.68669L47.6606 8.82562L47.324 8.95819L46.9882 9.0842L46.6525 9.20349L46.3167 9.3159L45.9801 9.42131L45.6423 9.51965L45.3028 9.61085L44.9611 9.69489L44.6168 9.77179L44.2693 9.84158L43.9183 9.90433L43.5632 9.96014L43.2036 10.0091L42.839 10.0515L42.4691 10.0874L42.0934 10.117L41.7115 10.1407L41.3231 10.1586L40.9278 10.171L40.5253 10.1783L40.1152 10.1808L39.6973 10.1788L39.2712 10.1727L38.8368 10.1628L38.3937 10.1496L37.9419 10.1335L37.4811 10.115L37.0113 10.0945L36.5324 10.0726L36.0443 10.0498L35.547 10.0265L35.0406 10.0035L34.5251 9.98111L34.0007 9.96008L33.4676 9.94092L32.9258 9.92424L32.3757 9.91062L31.8176 9.90065L31.2517 9.89492L30.6784 9.894L30.0982 9.89849L29.5114 9.90893L28.9185 9.9259L28.32 9.94993L27.7164 9.98155L27.1083 10.0213L26.4963 10.0696L25.881 10.127L25.2631 10.1938L24.6431 10.2706L24.0218 10.3578L23.3998 10.4556L22.7779 10.5644L22.1568 10.6846L21.5372 10.8164L20.9199 10.9601L20.3055 11.1159L19.6948 11.2839L19.0886 11.4643L18.4876 11.6573L17.8924 11.8629L17.3039 12.0811L16.7226 12.3121L16.1494 12.5557L15.5847 12.8119L15.0293 13.0806L14.4835 13.3616L13.9479 13.6548L13.4229 13.96L12.9089 14.2768L12.4063 14.6051L11.9152 14.9445L11.436 15.2947L10.9687 15.6554L10.5136 16.0263L10.0707 16.4069L9.64012 16.797L9.22179 17.1961L8.81571 17.604L8.42181 18.0202L8.03998 18.4444L7.6701 18.8761L7.31201 19.3152L6.96552 19.7612L6.63043 20.2138L6.30653 20.6726L5.99358 21.1375L5.69133 21.608L5.39954 22.084L5.11794 22.5651L4.8463 23.0512L4.58436 23.5419L4.33188 24.0372L4.08863 24.5367L3.8544 25.0403L3.62899 25.5479L3.41224 26.0593L3.20399 26.5744L3.00413 27.093L2.81256 27.6151L2.62924 28.1404L2.45414 28.669L2.2873 29.2008L2.12876 29.7356L1.97862 30.2733L1.83699 30.8139L1.70396 31.3573L1.57965 31.9033L1.46418 32.4519L1.35766 33.003L1.26022 33.5564L1.17199 34.1121L1.09309 34.6699L1.02366 35.2297L0.963809 35.7914L0.913678 36.3549L0.873386 36.9199L0.843055 37.4865L0.822803 38.0545L0.812744 38.6236L0.812987 39.1938L0.823634 39.765L0.844781 40.3368L0.876519 40.9093L0.918931 41.4823L0.972093 42.0555L1.03607 42.6288L1.11093 43.2021L1.19671 43.7752L1.29347 44.3478L1.40124 44.92L1.52005 45.4914L1.64991 46.0619L1.79084 46.6314L1.94285 47.1997L2.10593 47.7665L2.28007 48.3318L2.46526 48.8954L2.66149 49.457L2.86871 50.0166L3.08691 50.574L3.31604 51.129L3.55606 51.6814L3.80694 52.2311L4.06862 52.7779L4.34108 53.3216L4.62427 53.8621L4.91819 54.3992L5.2228 54.9326L5.53811 55.4623L5.86411 55.988L6.20078 56.5094L6.54814 57.0264L6.90619 57.5388L7.27492 58.0463L7.65433 58.5487L8.04442 59.0457L8.44518 59.5371L8.85661 60.0227L9.27869 60.5021L9.7114 60.9751L10.1547 61.4415L10.6086 61.9009L11.073 62.3531L11.5478 62.7979L12.033 63.2348L12.5286 63.6637L13.0344 64.0843L13.5503 64.4962L14.0761 64.8992L14.6119 65.293L15.1573 65.6774L15.7123 66.052L16.2766 66.4167L16.85 66.7712L17.4323 67.1152L18.0233 67.4486L18.6227 67.7711L19.2302 68.0825L19.8455 68.3827L20.4683 68.6716L21.0983 68.9489L21.735 69.2147L22.3781 69.4689L23.0272 69.7114L23.6819 69.9423L24.3418 70.1615L25.0064 70.3692L25.6754 70.5652L26.3484 70.7497L27.025 70.9227L27.7048 71.0844L28.3873 71.2347L29.0723 71.3738L29.7594 71.5017L30.4482 71.6187L31.1383 71.7248L31.8294 71.8201L32.5212 71.9047L33.2132 71.9789L33.9053 72.0428L34.5971 72.0965L35.2883 72.1403L35.9785 72.1742L36.6676 72.1985L37.3552 72.2134L38.0411 72.2191L38.725 72.2159L39.4066 72.2038L40.0859 72.1832L40.7624 72.1542L41.4361 72.1172L42.1067 72.0724L42.774 72.0199L43.438 71.9601L44.0983 71.8933L44.755 71.8196L45.4078 71.7393L46.0566 71.6528L46.7014 71.5603L47.342 71.462L47.9784 71.3582L48.6106 71.2493L49.2384 71.1354L49.8618 71.0169L50.4809 70.8939L51.0956 70.7669L51.7059 70.6361L52.3118 70.5018L52.9135 70.3644L53.5109 70.2243L54.1042 70.0818L54.6933 69.9373L55.2786 69.7912L55.8601 69.644L56.4379 69.4959L57.0124 69.3475L57.5836 69.1991L58.1519 69.051L58.7174 68.9036L59.2806 68.7573L59.8416 68.6125L60.4007 68.4694L60.9584 68.3283L61.5149 68.1894L62.0706 68.0531L62.6259 67.9195L63.1812 67.7889L63.7367 67.6612L64.2929 67.5368L64.8503 67.4155L65.409 67.2976L65.9697 67.183L66.5325 67.0716L67.0978 66.9635L67.6661 66.8585L68.2376 66.7565L68.8127 66.6573L69.3916 66.5608L69.9746 66.4667L70.5621 66.3747L71.1542 66.2847L71.7512 66.1963L72.3532 66.1091L72.9604 66.0229L73.573 65.9372L74.191 65.8517L74.8146 65.766L75.4437 65.6796L76.0784 65.5921L76.7187 65.5029L77.3645 65.4117L78.0155 65.3178L78.6718 65.2208L79.333 65.12L79.9989 65.015L80.6693 64.9051L81.3436 64.7898L82.0217 64.6686L82.7029 64.5407L83.387 64.4058L84.0732 64.2632L84.7612 64.1124L85.4503 63.9529L86.1398 63.7841L86.8291 63.6055L87.5176 63.4167L88.2045 63.2173L88.889 63.0067L89.5704 62.7847L90.2479 62.5508L90.9206 62.3047L91.5879 62.0462L92.2488 61.7749L92.9025 61.4906L93.5482 61.1932L94.185 60.8825L94.8121 60.5584L95.4286 60.2208L96.0339 59.8697L96.627 59.5052L97.2071 59.1272L97.7735 58.7359L98.3256 58.3313L98.8624 57.9138L99.3835 57.4835L99.8881 57.0406L100.376 56.5854L100.846 56.1183L101.297 55.6396L101.731 55.1499L102.146 54.6494L102.541 54.1387L102.918 53.6184L103.275 53.089L103.613 52.5509L103.931 52.0049L104.23 51.4514L104.511 50.891L104.772 50.3244L105.015 49.7521L105.239 49.1747L105.446 48.5928L105.635 48.0068L105.808 47.4174L105.963 46.8251L106.103 46.2304L106.228 45.6337L106.338 45.0356L106.433 44.4363L106.515 43.8364L106.585 43.2363L106.642 42.6361L106.687 42.0364L106.722 41.4372L106.746 40.839L106.76 40.2419L106.766 39.6461L106.763 39.0517L106.752 38.459L106.733 37.8679L106.707 37.2786L106.675 36.6912L106.637 36.1057L106.592 35.5221L106.542 34.9404ZM46.8434 33L51.9839 16.5205H50.2474C50.0558 16.5205 49.8909 16.5742 49.7529 16.6815C49.6226 16.7888 49.5383 16.9115 49.4999 17.0495L46.0844 28.5035C46.0308 28.7028 45.9809 28.9175 45.9349 29.1475C45.8889 29.3775 45.8468 29.619 45.8084 29.872C45.7548 29.619 45.6973 29.3775 45.6359 29.1475C45.5823 28.9175 45.5209 28.7028 45.4519 28.5035L41.5879 17.0495C41.5266 16.8962 41.4346 16.7697 41.3119 16.67C41.1893 16.5703 41.0283 16.5205 40.8289 16.5205H40.1849C39.9933 16.5205 39.8284 16.578 39.6904 16.693C39.5601 16.8003 39.4719 16.9192 39.4259 17.0495L35.5504 28.5035C35.4814 28.7028 35.4163 28.9252 35.3549 29.1705C35.3013 29.4082 35.2476 29.6612 35.1939 29.9295C35.1479 29.6612 35.0981 29.4082 35.0444 29.1705C34.9984 28.9328 34.9486 28.7105 34.8949 28.5035L31.4909 17.0495C31.4526 16.8962 31.3644 16.7697 31.2264 16.67C31.0961 16.5703 30.9313 16.5205 30.7319 16.5205H28.8804L34.0209 33H36.0219L40.2194 20.4305C40.2578 20.3078 40.2961 20.1775 40.3344 20.0395C40.3728 19.9015 40.4111 19.7558 40.4494 19.6025C40.4878 19.7558 40.5223 19.9015 40.5529 20.0395C40.5913 20.1775 40.6296 20.3078 40.6679 20.4305L44.8424 33H46.8434ZM64.5915 33L64.603 31.183H56.668V25.5595H63.085V23.8115H56.668V18.3375H64.5915V16.5205H54.437V33H64.5915ZM75.1404 31.0105C74.6804 31.1562 74.1323 31.229 73.4959 31.229H69.9309V25.4905H73.4959C74.7073 25.4905 75.6158 25.7397 76.2214 26.238C76.8271 26.7287 77.1299 27.3995 77.1299 28.2505C77.1299 28.6875 77.0609 29.09 76.9229 29.458C76.7849 29.8183 76.5664 30.1327 76.2674 30.401C75.9761 30.6617 75.6004 30.8648 75.1404 31.0105ZM69.9309 23.9035V18.28H72.9669C74.1936 18.28 75.0983 18.5062 75.6809 18.9585C76.2636 19.4032 76.5549 20.1123 76.5549 21.086C76.5549 21.5 76.4821 21.8833 76.3364 22.236C76.1908 22.581 75.9646 22.8762 75.6579 23.1215C75.3589 23.3668 74.9756 23.5585 74.5079 23.6965C74.0479 23.8345 73.5036 23.9035 72.8749 23.9035H69.9309ZM75.5774 16.8195C74.8491 16.6202 73.9789 16.5205 72.9669 16.5205H67.7114V33H73.5304C74.4504 33 75.2708 32.8888 75.9914 32.6665C76.7121 32.4365 77.3178 32.1145 77.8084 31.7005C78.3068 31.2865 78.6824 30.792 78.9354 30.217C79.1961 29.642 79.3264 29.0057 79.3264 28.308C79.3264 27.2807 79.0198 26.4527 78.4064 25.824C77.8008 25.1877 76.8923 24.7545 75.6809 24.5245C76.2023 24.3635 76.6546 24.1565 77.0379 23.9035C77.4289 23.6428 77.7509 23.3515 78.0039 23.0295C78.2569 22.7075 78.4448 22.3625 78.5674 21.9945C78.6978 21.6188 78.7629 21.2278 78.7629 20.8215C78.7629 20.1545 78.6518 19.5565 78.4294 19.0275C78.2071 18.4908 77.8583 18.0385 77.3829 17.6705C76.9153 17.3025 76.3134 17.0188 75.5774 16.8195ZM34.43 59.0105C33.97 59.1562 33.4218 59.229 32.7855 59.229H29.2205V53.4905H32.7855C33.9968 53.4905 34.9053 53.7397 35.511 54.238C36.1167 54.7287 36.4195 55.3995 36.4195 56.2505C36.4195 56.6875 36.3505 57.09 36.2125 57.458C36.0745 57.8183 35.856 58.1327 35.557 58.401C35.2657 58.6617 34.89 58.8648 34.43 59.0105ZM29.2205 51.9035V46.28H32.2565C33.4832 46.28 34.3878 46.5062 34.9705 46.9585C35.5532 47.4032 35.8445 48.1123 35.8445 49.086C35.8445 49.5 35.7717 49.8833 35.626 50.236C35.4803 50.581 35.2542 50.8762 34.9475 51.1215C34.6485 51.3668 34.2652 51.5585 33.7975 51.6965C33.3375 51.8345 32.7932 51.9035 32.1645 51.9035H29.2205ZM34.867 44.8195C34.1387 44.6202 33.2685 44.5205 32.2565 44.5205H27.001V61H32.82C33.74 61 34.5603 60.8888 35.281 60.6665C36.0017 60.4365 36.6073 60.1145 37.098 59.7005C37.5963 59.2865 37.972 58.792 38.225 58.217C38.4857 57.642 38.616 57.0057 38.616 56.308C38.616 55.2807 38.3093 54.4527 37.696 53.824C37.0903 53.1877 36.1818 52.7545 34.9705 52.5245C35.4918 52.3635 35.9442 52.1565 36.3275 51.9035C36.7185 51.6428 37.0405 51.3515 37.2935 51.0295C37.5465 50.7075 37.7343 50.3625 37.857 49.9945C37.9873 49.6188 38.0525 49.2278 38.0525 48.8215C38.0525 48.1545 37.9413 47.5565 37.719 47.0275C37.4967 46.4908 37.1478 46.0385 36.6725 45.6705C36.2048 45.3025 35.603 45.0188 34.867 44.8195ZM51.2196 61V59.1255H44.0896V44.5205H41.8701V61H51.2196ZM67.5604 56.17C67.9514 55.135 68.1469 54.0003 68.1469 52.766C68.1469 51.5317 67.9514 50.4008 67.5604 49.3735C67.1694 48.3385 66.6174 47.4492 65.9044 46.7055C65.1914 45.9542 64.3327 45.3715 63.3284 44.9575C62.3317 44.5435 61.2277 44.3365 60.0164 44.3365C58.8051 44.3365 57.7011 44.5435 56.7044 44.9575C55.7077 45.3715 54.8529 45.9542 54.1399 46.7055C53.4269 47.4492 52.8749 48.3385 52.4839 49.3735C52.0929 50.4008 51.8974 51.5317 51.8974 52.766C51.8974 54.0003 52.0929 55.135 52.4839 56.17C52.8749 57.1973 53.4269 58.0828 54.1399 58.8265C54.8529 59.5702 55.7077 60.149 56.7044 60.563C57.7011 60.9693 58.8051 61.1725 60.0164 61.1725C61.2277 61.1725 62.3317 60.9693 63.3284 60.563C64.3327 60.149 65.1914 59.5702 65.9044 58.8265C66.6174 58.0828 67.1694 57.1973 67.5604 56.17ZM65.4444 50.0405C65.7204 50.8455 65.8584 51.754 65.8584 52.766C65.8584 53.778 65.7204 54.6865 65.4444 55.4915C65.1684 56.2888 64.7774 56.9673 64.2714 57.527C63.7654 58.079 63.1521 58.5045 62.4314 58.8035C61.7107 59.0948 60.9057 59.2405 60.0164 59.2405C59.1347 59.2405 58.3336 59.0948 57.6129 58.8035C56.8922 58.5045 56.2751 58.079 55.7614 57.527C55.2554 56.9673 54.8644 56.2888 54.5884 55.4915C54.3124 54.6865 54.1744 53.778 54.1744 52.766C54.1744 51.754 54.3124 50.8455 54.5884 50.0405C54.8644 49.2355 55.2554 48.557 55.7614 48.005C56.2751 47.4453 56.8922 47.016 57.6129 46.717C58.3336 46.418 59.1347 46.2685 60.0164 46.2685C60.9057 46.2685 61.7107 46.418 62.4314 46.717C63.1521 47.016 63.7654 47.4453 64.2714 48.005C64.7774 48.557 65.1684 49.2355 65.4444 50.0405ZM78.7679 59.0105C78.3079 59.1562 77.7597 59.229 77.1234 59.229H73.5584V53.4905H77.1234C78.3347 53.4905 79.2432 53.7397 79.8489 54.238C80.4545 54.7287 80.7574 55.3995 80.7574 56.2505C80.7574 56.6875 80.6884 57.09 80.5504 57.458C80.4124 57.8183 80.1939 58.1327 79.8949 58.401C79.6035 58.6617 79.2279 58.8648 78.7679 59.0105ZM73.5584 51.9035V46.28H76.5944C77.821 46.28 78.7257 46.5062 79.3084 46.9585C79.891 47.4032 80.1824 48.1123 80.1824 49.086C80.1824 49.5 80.1095 49.8833 79.9639 50.236C79.8182 50.581 79.592 50.8762 79.2854 51.1215C78.9864 51.3668 78.603 51.5585 78.1354 51.6965C77.6754 51.8345 77.131 51.9035 76.5024 51.9035H73.5584ZM79.2049 44.8195C78.4765 44.6202 77.6064 44.5205 76.5944 44.5205H71.3389V61H77.1579C78.0779 61 78.8982 60.8888 79.6189 60.6665C80.3395 60.4365 80.9452 60.1145 81.4359 59.7005C81.9342 59.2865 82.3099 58.792 82.5629 58.217C82.8235 57.642 82.9539 57.0057 82.9539 56.308C82.9539 55.2807 82.6472 54.4527 82.0339 53.824C81.4282 53.1877 80.5197 52.7545 79.3084 52.5245C79.8297 52.3635 80.282 52.1565 80.6654 51.9035C81.0564 51.6428 81.3784 51.3515 81.6314 51.0295C81.8844 50.7075 82.0722 50.3625 82.1949 49.9945C82.3252 49.6188 82.3904 49.2278 82.3904 48.8215C82.3904 48.1545 82.2792 47.5565 82.0569 47.0275C81.8345 46.4908 81.4857 46.0385 81.0104 45.6705C80.5427 45.3025 79.9409 45.0188 79.2049 44.8195Z" fill="url(#paint0_linear_225_518)"/>
<defs>
<linearGradient id="paint0_linear_225_518" x1="96.0003" y1="29.7759" x2="76.8573" y2="116.285" gradientUnits="userSpaceOnUse">
<stop stop-color="#17F8C2"/>
<stop offset="1" stop-color="#4E32C3"/>
</linearGradient>
</defs>
</svg>
