<svg width="44" height="43" viewBox="0 0 44 43" fill="none" xmlns="http://www.w3.org/2000/svg">
<g clip-path="url(#clip0_471_209)">
<path d="M38.7969 5.64375C38.3349 5.34485 37.8065 5.16402 37.2582 5.11716C36.7099 5.0703 36.1585 5.15884 35.6525 5.375L19.0706 11.9056C18.678 12.0654 18.2582 12.1475 17.8344 12.1475H7.21875C6.32779 12.1475 5.47332 12.5014 4.84331 13.1314C4.21331 13.7614 3.85938 14.6159 3.85938 15.5069V15.7756H0.5V23.8381H3.85938V24.1875C3.88043 25.0644 4.24363 25.8983 4.87137 26.511C5.49911 27.1237 6.34158 27.4665 7.21875 27.4662L11.25 36.0125C11.523 36.588 11.9527 37.0749 12.4899 37.4171C13.0271 37.7594 13.6499 37.9432 14.2869 37.9475H15.98C16.8663 37.9404 17.7139 37.5833 18.3381 36.9541C18.9623 36.3249 19.3125 35.4744 19.3125 34.5881V27.7887L35.6525 34.3194C36.0544 34.4793 36.4831 34.5614 36.9156 34.5612C37.5867 34.5504 38.2402 34.345 38.7969 33.97C39.2389 33.6715 39.6035 33.2721 39.8606 32.8048C40.1176 32.3375 40.2597 31.8156 40.275 31.2825V8.41187C40.2725 7.86501 40.1366 7.32702 39.879 6.84461C39.6214 6.36221 39.25 5.94999 38.7969 5.64375ZM15.9531 15.5069V24.1875H7.21875V15.5069H15.9531ZM15.9531 34.5881H14.26L10.9544 27.4662H15.9531V34.5881ZM20.3069 24.5906C19.9878 24.4276 19.6551 24.2927 19.3125 24.1875V15.3187C19.6518 15.2487 19.9845 15.1498 20.3069 15.0231L36.9156 8.41187V31.2019L20.3069 24.5906ZM40.3556 16.4475V23.1662C41.2466 23.1662 42.1011 22.8123 42.7311 22.1823C43.3611 21.5523 43.715 20.6978 43.715 19.8069C43.715 18.9159 43.3611 18.0614 42.7311 17.4314C42.1011 16.8014 41.2466 16.4475 40.3556 16.4475Z" fill="#17F8C2"/>
</g>
<defs>
<clipPath id="clip0_471_209">
<rect width="43" height="43" fill="white" transform="translate(0.5)"/>
</clipPath>
</defs>
</svg>
