<svg width="891" height="923" viewBox="0 0 891 923" fill="none" xmlns="http://www.w3.org/2000/svg">
<g filter="url(#filter0_f_522_331)">
<path fill-rule="evenodd" clip-rule="evenodd" d="M801.729 447.666V447.666L800.812 451.862L799.875 456.037L798.921 460.191L797.951 464.324L796.966 468.438L795.97 472.532L794.962 476.607L793.943 480.665L792.914 484.704L791.875 488.727L790.825 492.734L789.763 496.725L788.69 500.7L787.604 504.66L786.503 508.605L785.386 512.536L784.251 516.451L783.094 520.351L781.911 524.235L780.7 528.101L779.455 531.95L778.173 535.778L776.847 539.585L775.474 543.368L774.048 547.125L772.565 550.853L771.019 554.548L769.406 558.209L767.722 561.832L765.962 565.413L764.123 568.949L762.203 572.436L760.198 575.871L758.107 579.25L755.929 582.57L753.662 585.829L751.307 589.021L748.862 592.146L746.328 595.198L743.705 598.175L740.994 601.075L738.195 603.893L735.309 606.627L732.338 609.276L729.284 611.835L726.148 614.303L722.934 616.678L719.643 618.958L716.278 621.141L712.844 623.226L709.343 625.212L705.78 627.099L702.16 628.886L698.485 630.574L694.763 632.162L690.997 633.653L687.192 635.047L683.356 636.346L679.492 637.552L675.607 638.669L671.707 639.699L667.798 640.645L663.886 641.511L659.976 642.303L656.076 643.023L652.19 643.678L648.324 644.273L644.485 644.814L640.678 645.305L636.908 645.755L633.18 646.169L629.499 646.554L625.87 646.918L622.298 647.266L618.785 647.608L615.337 647.949L611.955 648.298L608.644 648.662L605.406 649.049L602.243 649.466L599.157 649.921L596.15 650.421L593.222 650.973L590.373 651.585L587.605 652.263L584.916 653.014L582.307 653.844L579.775 654.76L577.32 655.767L574.94 656.87L572.632 658.075L570.393 659.387L568.221 660.808L566.112 662.343L564.063 663.995L562.069 665.766L560.125 667.658L558.228 669.673L556.373 671.811L554.554 674.072L552.766 676.456L551.003 678.962L549.26 681.586L547.532 684.328L545.811 687.182L544.094 690.146L542.372 693.215L540.642 696.383L538.897 699.644L537.131 702.992L535.339 706.421L533.516 709.923L531.658 713.491L529.759 717.118L527.816 720.798L525.825 724.524L523.782 728.287L521.684 732.082L519.529 735.901L517.312 739.738L515.034 743.585L512.69 747.436L510.279 751.283L507.801 755.12L505.253 758.941L502.634 762.738L499.945 766.507L497.184 770.239L494.352 773.932L491.449 777.578L488.474 781.172L485.429 784.71L482.314 788.186L479.13 791.596L475.877 794.934L472.558 798.196L469.173 801.376L465.724 804.47L462.213 807.473L458.641 810.381L455.011 813.188L451.324 815.891L447.583 818.484L443.791 820.965L439.95 823.329L436.063 825.572L432.132 827.691L428.161 829.683L424.153 831.544L420.11 833.272L416.036 834.864L411.935 836.318L407.81 837.632L403.664 838.805L399.5 839.836L395.322 840.722L391.134 841.464L386.939 842.061L382.74 842.512L378.54 842.819L374.344 842.981L370.154 843L365.974 842.876L361.806 842.61L357.655 842.204L353.522 841.66L349.41 840.979L345.323 840.164L341.263 839.217L337.233 838.141L333.235 836.938L329.271 835.611L325.343 834.163L321.454 832.597L317.605 830.918L313.799 829.127L310.036 827.228L306.318 825.225L302.646 823.122L299.023 820.922L295.448 818.629L291.923 816.246L288.448 813.777L285.024 811.226L281.652 808.597L278.332 805.892L275.064 803.117L271.849 800.274L268.686 797.366L265.576 794.398L262.519 791.373L259.514 788.293L256.561 785.163L253.66 781.985L250.81 778.761L248.012 775.495L245.265 772.189L242.569 768.845L239.923 765.465L237.327 762.053L234.781 758.608L232.285 755.134L229.839 751.631L227.442 748.102L225.094 744.548L222.795 740.969L220.545 737.368L218.343 733.746L216.188 730.107L214.078 726.451L212.012 722.783L209.988 719.104L208.004 715.418L206.056 711.727L204.143 708.036L202.261 704.346L200.406 700.661L198.576 696.984L196.766 693.318L194.973 689.666L193.193 686.03L191.421 682.413L189.653 678.818L187.884 675.246L186.11 671.7L184.325 668.183L182.526 664.695L180.707 661.237L178.866 657.81L176.997 654.415L175.098 651.051L173.165 647.717L171.196 644.412L169.188 641.136L167.14 637.885L165.049 634.658L162.916 631.453L160.739 628.267L158.518 625.097L156.254 621.939L153.947 618.791L151.599 615.649L149.211 612.509L146.787 609.368L144.329 606.221L141.84 603.065L139.325 599.896L136.787 596.71L134.231 593.503L131.662 590.271L129.087 587.012L126.509 583.721L123.937 580.395L121.375 577.032L118.83 573.628L116.31 570.182L113.82 566.691L111.369 563.153L108.963 559.567L106.608 555.931L104.313 552.245L102.084 548.508L99.9274 544.72L97.8507 540.881L95.8603 536.991L93.9626 533.052L92.1637 529.065L90.4695 525.031L88.8856 520.952L87.4174 516.83L86.0698 512.668L84.8474 508.468L83.7544 504.233L82.7947 499.966L81.9718 495.671L81.2887 491.352L80.748 487.011L80.3518 482.653L80.1021 478.282L80 473.902L80.0465 469.517L80.2422 465.131L80.587 460.749L81.0805 456.375L81.7221 452.012L82.5106 447.666L83.4442 443.341L84.5212 439.04L85.739 434.768L87.095 430.528L88.5861 426.324L90.2085 422.16L91.9586 418.039L93.832 413.964L95.8243 409.939L97.9308 405.966L100.146 402.048L102.466 398.187L104.884 394.385L107.395 390.644L109.993 386.967L112.673 383.353L115.429 379.804L118.252 376.321L121.138 372.903L124.078 369.552L127.066 366.267L130.093 363.046L133.154 359.889L136.24 356.794L139.344 353.76L142.458 350.785L145.577 347.866L148.693 345L151.799 342.186L154.888 339.418L157.955 336.695L160.993 334.013L163.997 331.367L166.961 328.753L169.879 326.168L172.747 323.607L175.56 321.065L178.315 318.538L181.008 316.022L183.636 313.511L186.197 311.002L188.689 308.49L191.109 305.971L193.458 303.441L195.735 300.895L197.94 298.33L200.072 295.743L202.134 293.129L204.125 290.485L206.049 287.809L207.906 285.099L209.7 282.35L211.432 279.563L213.108 276.734L214.729 273.863L216.301 270.948L217.826 267.99L219.309 264.987L220.755 261.94L222.168 258.848L223.552 255.714L224.914 252.537L226.257 249.319L227.587 246.062L228.908 242.768L230.225 239.438L231.544 236.076L232.868 232.683L234.203 229.263L235.552 225.819L236.92 222.354L238.312 218.87L239.731 215.373L241.18 211.864L242.665 208.348L244.187 204.828L245.75 201.309L247.356 197.793L249.009 194.284L250.71 190.787L252.463 187.305L254.267 183.84L256.127 180.398L258.041 176.981L260.013 173.592L262.042 170.235L264.13 166.913L266.277 163.629L268.483 160.386L270.749 157.187L273.074 154.033L275.458 150.928L277.901 147.873L280.402 144.872L282.961 141.925L285.576 139.035L288.247 136.204L290.973 133.432L293.752 130.721L296.584 128.072L299.467 125.487L302.399 122.965L305.379 120.508L308.406 118.116L311.477 115.789L314.592 113.528L317.748 111.332L320.945 109.202L324.18 107.137L327.453 105.138L330.76 103.204L334.102 101.337L337.477 99.5348L340.883 97.7999L344.32 96.1326L347.786 94.5341L351.28 93.0057L354.802 91.5491L358.349 90.1662L361.922 88.859L365.519 87.6297L369.138 86.4808L372.78 85.4151L376.442 84.4353L380.123 83.5444L383.823 82.7454L387.539 82.0415L391.269 81.4361L395.013 80.9324L398.769 80.5338L402.534 80.2435L406.307 80.0646L410.084 80L413.865 80.0525L417.646 80.2244L421.425 80.518L425.199 80.9352L428.966 81.4775L432.722 82.1461L436.465 82.9418L440.191 83.8652L443.898 84.9162L447.583 86.0946L451.243 87.3995L454.875 88.8298L458.475 90.3839L462.042 92.0596L465.572 93.8545L469.063 95.7656L472.511 97.7895L475.916 99.9225L479.274 102.16L482.584 104.498L485.844 106.931L489.051 109.453L492.206 112.059L495.307 114.743L498.352 117.497L501.343 120.316L504.277 123.192L507.156 126.117L509.98 129.085L512.749 132.087L515.465 135.116L518.13 138.164L520.744 141.223L523.309 144.284L525.83 147.34L528.307 150.383L530.744 153.405L533.144 156.398L535.511 159.355L537.848 162.269L540.161 165.132L542.452 167.938L544.727 170.68L546.991 173.353L549.247 175.95L551.502 178.468L553.76 180.9L556.026 183.244L558.306 185.494L560.604 187.649L562.927 189.704L565.278 191.66L567.664 193.513L570.089 195.263L572.557 196.91L575.074 198.454L577.644 199.896L580.27 201.238L582.957 202.481L585.708 203.629L588.527 204.685L591.415 205.653L594.376 206.536L597.411 207.34L600.522 208.071L603.709 208.735L606.974 209.337L610.316 209.886L613.734 210.387L617.227 210.848L620.795 211.278L624.433 211.685L628.141 212.076L631.914 212.459L635.75 212.844L639.645 213.236L643.596 213.645L647.597 214.076L651.646 214.538L655.737 215.036L659.866 215.579L664.028 216.17L668.218 216.818L672.43 217.527L676.661 218.304L680.903 219.152L685.152 220.076L689.403 221.082L693.649 222.172L697.887 223.351L702.11 224.62L706.313 225.983L710.493 227.442L714.643 228.999L718.76 230.654L722.838 232.41L726.873 234.267L730.86 236.228L734.792 238.291L738.667 240.459L742.479 242.731L746.222 245.107L749.893 247.587L753.486 250.17L756.997 252.857L760.421 255.645L763.755 258.533L766.994 261.521L770.134 264.607L773.171 267.788L776.102 271.062L778.924 274.427L781.634 277.88L784.228 281.418L786.706 285.039L789.064 288.739L791.301 292.514L793.416 296.361L795.408 300.277L797.275 304.257L799.018 308.297L800.637 312.394L802.131 316.543L803.503 320.741L804.751 324.983L805.879 329.265L806.887 333.582L807.778 337.932L808.553 342.31L809.216 346.711L809.769 351.133L810.216 355.571L810.558 360.022L810.801 364.482L810.947 368.948L811 373.417L810.965 377.885L810.844 382.351L810.644 386.811L810.367 391.263L810.018 395.704L809.601 400.133L809.121 404.549L808.581 408.948L807.987 413.33L807.342 417.694L806.65 422.039L805.915 426.363L805.142 430.667L804.333 434.949L803.492 439.21L802.623 443.449L801.729 447.666" fill="url(#paint0_linear_522_331)"/>
</g>
<path fill-rule="evenodd" clip-rule="evenodd" d="M801.729 447.666V447.666L800.812 451.862L799.875 456.037L798.921 460.191L797.951 464.324L796.966 468.438L795.97 472.532L794.962 476.607L793.943 480.665L792.914 484.704L791.875 488.727L790.825 492.734L789.763 496.725L788.69 500.7L787.604 504.66L786.503 508.605L785.386 512.536L784.251 516.451L783.094 520.351L781.911 524.235L780.7 528.101L779.455 531.95L778.173 535.778L776.847 539.585L775.474 543.368L774.048 547.125L772.565 550.853L771.019 554.548L769.406 558.209L767.722 561.832L765.962 565.413L764.123 568.949L762.203 572.436L760.198 575.871L758.107 579.25L755.929 582.57L753.662 585.829L751.307 589.021L748.862 592.146L746.328 595.198L743.705 598.175L740.994 601.075L738.195 603.893L735.309 606.627L732.338 609.276L729.284 611.835L726.148 614.303L722.934 616.678L719.643 618.958L716.278 621.141L712.844 623.226L709.343 625.212L705.78 627.099L702.16 628.886L698.485 630.574L694.763 632.162L690.997 633.653L687.192 635.047L683.356 636.346L679.492 637.552L675.607 638.669L671.707 639.699L667.798 640.645L663.886 641.511L659.976 642.303L656.076 643.023L652.19 643.678L648.324 644.273L644.485 644.814L640.678 645.305L636.908 645.755L633.18 646.169L629.499 646.554L625.87 646.918L622.298 647.266L618.785 647.608L615.337 647.949L611.955 648.298L608.644 648.662L605.406 649.049L602.243 649.466L599.157 649.921L596.15 650.421L593.222 650.973L590.373 651.585L587.605 652.263L584.916 653.014L582.307 653.844L579.775 654.76L577.32 655.767L574.94 656.87L572.632 658.075L570.393 659.387L568.221 660.808L566.112 662.343L564.063 663.995L562.069 665.766L560.125 667.658L558.228 669.673L556.373 671.811L554.554 674.072L552.766 676.456L551.003 678.962L549.26 681.586L547.532 684.328L545.811 687.182L544.094 690.146L542.372 693.215L540.642 696.383L538.897 699.644L537.131 702.992L535.339 706.421L533.516 709.923L531.658 713.491L529.759 717.118L527.816 720.798L525.825 724.524L523.782 728.287L521.684 732.082L519.529 735.901L517.312 739.738L515.034 743.585L512.69 747.436L510.279 751.283L507.801 755.12L505.253 758.941L502.634 762.738L499.945 766.507L497.184 770.239L494.352 773.932L491.449 777.578L488.474 781.172L485.429 784.71L482.314 788.186L479.13 791.596L475.877 794.934L472.558 798.196L469.173 801.376L465.724 804.47L462.213 807.473L458.641 810.381L455.011 813.188L451.324 815.891L447.583 818.484L443.791 820.965L439.95 823.329L436.063 825.572L432.132 827.691L428.161 829.683L424.153 831.544L420.11 833.272L416.036 834.864L411.935 836.318L407.81 837.632L403.664 838.805L399.5 839.836L395.322 840.722L391.134 841.464L386.939 842.061L382.74 842.512L378.54 842.819L374.344 842.981L370.154 843L365.974 842.876L361.806 842.61L357.655 842.204L353.522 841.66L349.41 840.979L345.323 840.164L341.263 839.217L337.233 838.141L333.235 836.938L329.271 835.611L325.343 834.163L321.454 832.597L317.605 830.918L313.799 829.127L310.036 827.228L306.318 825.225L302.646 823.122L299.023 820.922L295.448 818.629L291.923 816.246L288.448 813.777L285.024 811.226L281.652 808.597L278.332 805.892L275.064 803.117L271.849 800.274L268.686 797.366L265.576 794.398L262.519 791.373L259.514 788.293L256.561 785.163L253.66 781.985L250.81 778.761L248.012 775.495L245.265 772.189L242.569 768.845L239.923 765.465L237.327 762.053L234.781 758.608L232.285 755.134L229.839 751.631L227.442 748.102L225.094 744.548L222.795 740.969L220.545 737.368L218.343 733.746L216.188 730.107L214.078 726.451L212.012 722.783L209.988 719.104L208.004 715.418L206.056 711.727L204.143 708.036L202.261 704.346L200.406 700.661L198.576 696.984L196.766 693.318L194.973 689.666L193.193 686.03L191.421 682.413L189.653 678.818L187.884 675.246L186.11 671.7L184.325 668.183L182.526 664.695L180.707 661.237L178.866 657.81L176.997 654.415L175.098 651.051L173.165 647.717L171.196 644.412L169.188 641.136L167.14 637.885L165.049 634.658L162.916 631.453L160.739 628.267L158.518 625.097L156.254 621.939L153.947 618.791L151.599 615.649L149.211 612.509L146.787 609.368L144.329 606.221L141.84 603.065L139.325 599.896L136.787 596.71L134.231 593.503L131.662 590.271L129.087 587.012L126.509 583.721L123.937 580.395L121.375 577.032L118.83 573.628L116.31 570.182L113.82 566.691L111.369 563.153L108.963 559.567L106.608 555.931L104.313 552.245L102.084 548.508L99.9274 544.72L97.8507 540.881L95.8603 536.991L93.9626 533.052L92.1637 529.065L90.4695 525.031L88.8856 520.952L87.4174 516.83L86.0698 512.668L84.8474 508.468L83.7544 504.233L82.7947 499.966L81.9718 495.671L81.2887 491.352L80.748 487.011L80.3518 482.653L80.1021 478.282L80 473.902L80.0465 469.517L80.2422 465.131L80.587 460.749L81.0805 456.375L81.7221 452.012L82.5106 447.666L83.4442 443.341L84.5212 439.04L85.739 434.768L87.095 430.528L88.5861 426.324L90.2085 422.16L91.9586 418.039L93.832 413.964L95.8243 409.939L97.9308 405.966L100.146 402.048L102.466 398.187L104.884 394.385L107.395 390.644L109.993 386.967L112.673 383.353L115.429 379.804L118.252 376.321L121.138 372.903L124.078 369.552L127.066 366.267L130.093 363.046L133.154 359.889L136.24 356.794L139.344 353.76L142.458 350.785L145.577 347.866L148.693 345L151.799 342.186L154.888 339.418L157.955 336.695L160.993 334.013L163.997 331.367L166.961 328.753L169.879 326.168L172.747 323.607L175.56 321.065L178.315 318.538L181.008 316.022L183.636 313.511L186.197 311.002L188.689 308.49L191.109 305.971L193.458 303.441L195.735 300.895L197.94 298.33L200.072 295.743L202.134 293.129L204.125 290.485L206.049 287.809L207.906 285.099L209.7 282.35L211.432 279.563L213.108 276.734L214.729 273.863L216.301 270.948L217.826 267.99L219.309 264.987L220.755 261.94L222.168 258.848L223.552 255.714L224.914 252.537L226.257 249.319L227.587 246.062L228.908 242.768L230.225 239.438L231.544 236.076L232.868 232.683L234.203 229.263L235.552 225.819L236.92 222.354L238.312 218.87L239.731 215.373L241.18 211.864L242.665 208.348L244.187 204.828L245.75 201.309L247.356 197.793L249.009 194.284L250.71 190.787L252.463 187.305L254.267 183.84L256.127 180.398L258.041 176.981L260.013 173.592L262.042 170.235L264.13 166.913L266.277 163.629L268.483 160.386L270.749 157.187L273.074 154.033L275.458 150.928L277.901 147.873L280.402 144.872L282.961 141.925L285.576 139.035L288.247 136.204L290.973 133.432L293.752 130.721L296.584 128.072L299.467 125.487L302.399 122.965L305.379 120.508L308.406 118.116L311.477 115.789L314.592 113.528L317.748 111.332L320.945 109.202L324.18 107.137L327.453 105.138L330.76 103.204L334.102 101.337L337.477 99.5348L340.883 97.7999L344.32 96.1326L347.786 94.5341L351.28 93.0057L354.802 91.5491L358.349 90.1662L361.922 88.859L365.519 87.6297L369.138 86.4808L372.78 85.4151L376.442 84.4353L380.123 83.5444L383.823 82.7454L387.539 82.0415L391.269 81.4361L395.013 80.9324L398.769 80.5338L402.534 80.2435L406.307 80.0646L410.084 80L413.865 80.0525L417.646 80.2244L421.425 80.518L425.199 80.9352L428.966 81.4775L432.722 82.1461L436.465 82.9418L440.191 83.8652L443.898 84.9162L447.583 86.0946L451.243 87.3995L454.875 88.8298L458.475 90.3839L462.042 92.0596L465.572 93.8545L469.063 95.7656L472.511 97.7895L475.916 99.9225L479.274 102.16L482.584 104.498L485.844 106.931L489.051 109.453L492.206 112.059L495.307 114.743L498.352 117.497L501.343 120.316L504.277 123.192L507.156 126.117L509.98 129.085L512.749 132.087L515.465 135.116L518.13 138.164L520.744 141.223L523.309 144.284L525.83 147.34L528.307 150.383L530.744 153.405L533.144 156.398L535.511 159.355L537.848 162.269L540.161 165.132L542.452 167.938L544.727 170.68L546.991 173.353L549.247 175.95L551.502 178.468L553.76 180.9L556.026 183.244L558.306 185.494L560.604 187.649L562.927 189.704L565.278 191.66L567.664 193.513L570.089 195.263L572.557 196.91L575.074 198.454L577.644 199.896L580.27 201.238L582.957 202.481L585.708 203.629L588.527 204.685L591.415 205.653L594.376 206.536L597.411 207.34L600.522 208.071L603.709 208.735L606.974 209.337L610.316 209.886L613.734 210.387L617.227 210.848L620.795 211.278L624.433 211.685L628.141 212.076L631.914 212.459L635.75 212.844L639.645 213.236L643.596 213.645L647.597 214.076L651.646 214.538L655.737 215.036L659.866 215.579L664.028 216.17L668.218 216.818L672.43 217.527L676.661 218.304L680.903 219.152L685.152 220.076L689.403 221.082L693.649 222.172L697.887 223.351L702.11 224.62L706.313 225.983L710.493 227.442L714.643 228.999L718.76 230.654L722.838 232.41L726.873 234.267L730.86 236.228L734.792 238.291L738.667 240.459L742.479 242.731L746.222 245.107L749.893 247.587L753.486 250.17L756.997 252.857L760.421 255.645L763.755 258.533L766.994 261.521L770.134 264.607L773.171 267.788L776.102 271.062L778.924 274.427L781.634 277.88L784.228 281.418L786.706 285.039L789.064 288.739L791.301 292.514L793.416 296.361L795.408 300.277L797.275 304.257L799.018 308.297L800.637 312.394L802.131 316.543L803.503 320.741L804.751 324.983L805.879 329.265L806.887 333.582L807.778 337.932L808.553 342.31L809.216 346.711L809.769 351.133L810.216 355.571L810.558 360.022L810.801 364.482L810.947 368.948L811 373.417L810.965 377.885L810.844 382.351L810.644 386.811L810.367 391.263L810.018 395.704L809.601 400.133L809.121 404.549L808.581 408.948L807.987 413.33L807.342 417.694L806.65 422.039L805.915 426.363L805.142 430.667L804.333 434.949L803.492 439.21L802.623 443.449L801.729 447.666" fill="url(#paint1_linear_522_331)"/>
<defs>
<filter id="filter0_f_522_331" x="0" y="0" width="891" height="923" filterUnits="userSpaceOnUse" color-interpolation-filters="sRGB">
<feFlood flood-opacity="0" result="BackgroundImageFix"/>
<feBlend mode="normal" in="SourceGraphic" in2="BackgroundImageFix" result="shape"/>
<feGaussianBlur stdDeviation="40" result="effect1_foregroundBlur_522_331"/>
</filter>
<linearGradient id="paint0_linear_522_331" x1="810.949" y1="598.259" x2="112.369" y2="330.939" gradientUnits="userSpaceOnUse">
<stop offset="0.13457" stop-color="#4E32C3"/>
<stop offset="1" stop-color="#17F8C2"/>
</linearGradient>
<linearGradient id="paint1_linear_522_331" x1="810.949" y1="598.259" x2="112.369" y2="330.939" gradientUnits="userSpaceOnUse">
<stop offset="0.13457" stop-color="#4E32C3"/>
<stop offset="1" stop-color="#17F8C2"/>
</linearGradient>
</defs>
</svg>
