<svg width="44" height="43" viewBox="0 0 44 43" fill="none" xmlns="http://www.w3.org/2000/svg">
<g clip-path="url(#clip0_463_48)">
<path d="M41.1529 32.9129L43.1954 31.1213L41.4037 28.0217L38.8058 28.8996C38.2325 28.4158 37.5875 28.0396 36.8708 27.7708L36.3333 25.0833H32.75L32.2125 27.7529C31.4958 28.0217 30.8508 28.3979 30.2775 28.8817L27.6796 28.0037L25.8879 31.1033L27.9304 32.895C27.7871 33.7908 27.7871 34.2567 27.9304 35.1525L25.8879 36.9442L27.6796 40.0438L30.2775 39.1658C30.8508 39.6496 31.4958 40.0258 32.2125 40.2946L32.75 43H36.3333L36.8708 40.3304C37.5875 40.0617 38.2325 39.6854 38.8058 39.2017L41.4037 40.0796L43.1954 36.98L41.1529 35.1883C41.2962 34.2746 41.2962 33.8088 41.1529 32.9129ZM34.5417 37.625C32.5708 37.625 30.9583 36.0125 30.9583 34.0417C30.9583 32.0708 32.5708 30.4583 34.5417 30.4583C36.5125 30.4583 38.125 32.0708 38.125 34.0417C38.125 36.0125 36.5125 37.625 34.5417 37.625ZM20.2083 12.5417V22.2346L24.4367 26.4629L26.3 23.2558L23.7917 20.7654V12.5417H20.2083ZM38.125 21.5C38.125 17.2234 36.4261 13.1219 33.4021 10.0979C30.3781 7.07388 26.2766 5.375 22 5.375C16.9296 5.375 12.4146 7.74 9.45833 11.395V7.16667H5.875V17.9167H16.625V14.3333H11.7158C12.8714 12.6764 14.4096 11.3226 16.1999 10.3869C17.9903 9.45121 19.9799 8.96115 22 8.95833C28.9158 8.95833 34.5417 14.5842 34.5417 21.5H38.125ZM19.9575 33.8804C14.6004 33.0025 10.3721 28.6846 9.60167 23.2917H5.9825C6.87833 31.3542 13.7046 37.625 22 37.625H22.1254L19.9575 33.8804Z" fill="#17F8C2"/>
</g>
<defs>
<clipPath id="clip0_463_48">
<rect width="43" height="43" fill="white" transform="translate(0.5)"/>
</clipPath>
</defs>
</svg>
